# Blender v2.83.0 OBJ File: 'Soace man model.blend'
# www.blender.org
mtllib joystick.mtl
o Torus.002
v 1.677659 -1.531425 0.805443
v 1.666015 -1.503706 0.809868
v 1.637903 -1.492225 0.811701
v 1.609791 -1.503706 0.809868
v 1.598147 -1.531425 0.805443
v 1.609791 -1.559144 0.801018
v 1.637903 -1.570625 0.799185
v 1.666015 -1.559144 0.801018
v 1.660474 -1.519874 0.732703
v 1.649836 -1.492832 0.741390
v 1.624155 -1.482984 0.753509
v 1.598473 -1.496099 0.761963
v 1.587836 -1.524494 0.761799
v 1.598473 -1.551536 0.753113
v 1.624155 -1.561384 0.740993
v 1.649836 -1.548269 0.732539
v 1.611889 -1.510320 0.672541
v 1.604097 -1.483838 0.684751
v 1.585287 -1.475341 0.705380
v 1.566476 -1.489807 0.722342
v 1.558685 -1.518762 0.725702
v 1.566476 -1.545244 0.713492
v 1.585287 -1.553741 0.692864
v 1.604097 -1.539275 0.675901
v 1.540305 -1.504415 0.635359
v 1.536707 -1.478279 0.649747
v 1.528020 -1.470617 0.675634
v 1.519333 -1.485918 0.697854
v 1.515735 -1.515219 0.703393
v 1.519333 -1.541356 0.689004
v 1.528020 -1.549017 0.663118
v 1.536707 -1.533716 0.640897
v 1.458101 -1.503181 0.627586
v 1.459318 -1.477117 0.642429
v 1.462256 -1.469630 0.669415
v 1.465195 -1.485105 0.692735
v 1.466412 -1.514479 0.698729
v 1.465195 -1.540543 0.683885
v 1.462256 -1.548030 0.656899
v 1.459318 -1.532554 0.633579
v 1.379489 -1.506830 0.650566
v 1.385311 -1.480552 0.664063
v 1.399367 -1.472549 0.687799
v 1.413423 -1.487509 0.707869
v 1.419245 -1.516668 0.712517
v 1.413423 -1.542946 0.699019
v 1.399367 -1.550949 0.675283
v 1.385311 -1.535990 0.655213
v 1.318062 -1.514732 0.700325
v 1.327482 -1.487991 0.710908
v 1.350225 -1.478871 0.727607
v 1.372968 -1.492713 0.740640
v 1.382389 -1.521409 0.742372
v 1.372968 -1.548150 0.731790
v 1.350225 -1.557271 0.715091
v 1.327482 -1.543429 0.702058
v 1.284442 -1.525520 0.768261
v 1.295832 -1.498147 0.774864
v 1.323330 -1.487501 0.781955
v 1.350827 -1.499818 0.785381
v 1.362217 -1.527882 0.783134
v 1.350827 -1.555255 0.776531
v 1.323330 -1.565901 0.769439
v 1.295832 -1.553585 0.766014
v 1.284442 -1.537329 0.842626
v 1.295832 -1.509265 0.844873
v 1.323330 -1.496948 0.841447
v 1.350827 -1.507595 0.834356
v 1.362217 -1.534968 0.827753
v 1.350827 -1.563032 0.825506
v 1.323330 -1.575349 0.828931
v 1.295832 -1.564702 0.836022
v 1.318062 -1.548118 0.910561
v 1.327482 -1.519421 0.908828
v 1.350225 -1.505579 0.895795
v 1.372968 -1.514700 0.879097
v 1.382389 -1.541440 0.868514
v 1.372968 -1.570137 0.870246
v 1.350225 -1.583979 0.883280
v 1.327482 -1.574859 0.899978
v 1.379489 -1.556020 0.960321
v 1.385311 -1.526860 0.955673
v 1.399367 -1.511900 0.935603
v 1.413423 -1.519904 0.911867
v 1.419245 -1.546182 0.898370
v 1.413423 -1.575341 0.903017
v 1.399367 -1.590301 0.923087
v 1.385311 -1.582297 0.946823
v 1.458101 -1.559669 0.983301
v 1.459318 -1.530296 0.977307
v 1.462256 -1.514820 0.953987
v 1.465195 -1.522307 0.927001
v 1.466412 -1.548371 0.912158
v 1.465195 -1.577744 0.918151
v 1.462256 -1.593220 0.941471
v 1.459318 -1.585733 0.968457
v 1.540305 -1.558434 0.975528
v 1.536707 -1.529133 0.969989
v 1.528020 -1.513832 0.947769
v 1.519333 -1.521494 0.921882
v 1.515735 -1.547631 0.907494
v 1.519333 -1.576931 0.913032
v 1.528020 -1.592233 0.935253
v 1.536707 -1.584571 0.961139
v 1.611889 -1.552530 0.938345
v 1.604097 -1.523575 0.934985
v 1.585287 -1.509109 0.918023
v 1.566476 -1.517605 0.897395
v 1.558685 -1.544088 0.885184
v 1.566476 -1.573043 0.888545
v 1.585287 -1.587509 0.905507
v 1.604097 -1.579012 0.926135
v 1.660474 -1.542976 0.878183
v 1.649836 -1.514581 0.878347
v 1.624155 -1.501466 0.869893
v 1.598473 -1.511313 0.857773
v 1.587836 -1.538356 0.849087
v 1.598473 -1.566751 0.848923
v 1.624155 -1.579866 0.857377
v 1.649836 -1.570018 0.869497
vt 0.533333 0.500000
vt 0.600000 0.500000
vt 0.600000 0.625000
vt 0.533333 0.625000
vt 0.600000 0.750000
vt 0.533333 0.750000
vt 0.600000 0.875000
vt 0.533333 0.875000
vt 0.600000 1.000000
vt 0.533333 1.000000
vt 0.533333 0.000000
vt 0.600000 0.000000
vt 0.600000 0.125000
vt 0.533333 0.125000
vt 0.600000 0.250000
vt 0.533333 0.250000
vt 0.600000 0.375000
vt 0.533333 0.375000
vt 0.666667 0.500000
vt 0.666667 0.625000
vt 0.666667 0.750000
vt 0.666667 0.875000
vt 0.666667 1.000000
vt 0.666667 0.000000
vt 0.666667 0.125000
vt 0.666667 0.250000
vt 0.666667 0.375000
vt 0.733333 0.500000
vt 0.733333 0.625000
vt 0.733333 0.750000
vt 0.733333 0.875000
vt 0.733333 1.000000
vt 0.733333 0.000000
vt 0.733333 0.125000
vt 0.733333 0.250000
vt 0.733333 0.375000
vt 0.800000 0.500000
vt 0.800000 0.625000
vt 0.800000 0.750000
vt 0.800000 0.875000
vt 0.800000 1.000000
vt 0.800000 0.000000
vt 0.800000 0.125000
vt 0.800000 0.250000
vt 0.800000 0.375000
vt 0.866667 0.500000
vt 0.866667 0.625000
vt 0.866667 0.750000
vt 0.866667 0.875000
vt 0.866667 1.000000
vt 0.866667 0.000000
vt 0.866667 0.125000
vt 0.866667 0.250000
vt 0.866667 0.375000
vt 0.933333 0.500000
vt 0.933333 0.625000
vt 0.933333 0.750000
vt 0.933333 0.875000
vt 0.933333 1.000000
vt 0.933333 0.000000
vt 0.933333 0.125000
vt 0.933333 0.250000
vt 0.933333 0.375000
vt 1.000000 0.500000
vt 1.000000 0.625000
vt 1.000000 0.750000
vt 1.000000 0.875000
vt 1.000000 1.000000
vt 1.000000 0.000000
vt 1.000000 0.125000
vt 1.000000 0.250000
vt 1.000000 0.375000
vt -0.000000 0.500000
vt 0.066667 0.500000
vt 0.066667 0.625000
vt -0.000000 0.625000
vt 0.066667 0.750000
vt -0.000000 0.750000
vt 0.066667 0.875000
vt -0.000000 0.875000
vt 0.066667 1.000000
vt -0.000000 1.000000
vt -0.000000 0.000000
vt 0.066667 0.000000
vt 0.066667 0.125000
vt -0.000000 0.125000
vt 0.066667 0.250000
vt -0.000000 0.250000
vt 0.066667 0.375000
vt -0.000000 0.375000
vt 0.133333 0.500000
vt 0.133333 0.625000
vt 0.133333 0.750000
vt 0.133333 0.875000
vt 0.133333 1.000000
vt 0.133333 0.000000
vt 0.133333 0.125000
vt 0.133333 0.250000
vt 0.133333 0.375000
vt 0.200000 0.500000
vt 0.200000 0.625000
vt 0.200000 0.750000
vt 0.200000 0.875000
vt 0.200000 1.000000
vt 0.200000 0.000000
vt 0.200000 0.125000
vt 0.200000 0.250000
vt 0.200000 0.375000
vt 0.266667 0.500000
vt 0.266667 0.625000
vt 0.266667 0.750000
vt 0.266667 0.875000
vt 0.266667 1.000000
vt 0.266667 0.000000
vt 0.266667 0.125000
vt 0.266667 0.250000
vt 0.266667 0.375000
vt 0.333333 0.500000
vt 0.333333 0.625000
vt 0.333333 0.750000
vt 0.333333 0.875000
vt 0.333333 1.000000
vt 0.333333 0.000000
vt 0.333333 0.125000
vt 0.333333 0.250000
vt 0.333333 0.375000
vt 0.400000 0.500000
vt 0.400000 0.625000
vt 0.400000 0.750000
vt 0.400000 0.875000
vt 0.400000 1.000000
vt 0.400000 0.000000
vt 0.400000 0.125000
vt 0.400000 0.250000
vt 0.400000 0.375000
vt 0.466667 0.500000
vt 0.466667 0.625000
vt 0.466667 0.750000
vt 0.466667 0.875000
vt 0.466667 1.000000
vt 0.466667 0.000000
vt 0.466667 0.125000
vt 0.466667 0.250000
vt 0.466667 0.375000
vn 0.9029 0.4031 -0.1493
vn 0.3807 0.9230 0.0566
vn -0.3807 0.8951 0.2321
vn -0.9030 0.3367 0.2668
vn -0.9029 -0.4031 0.1493
vn -0.3807 -0.9230 -0.0566
vn 0.3807 -0.8951 -0.2321
vn 0.9030 -0.3367 -0.2668
vn 0.7277 0.4520 -0.5159
vn 0.3133 0.9440 -0.1031
vn -0.3135 0.8656 0.3906
vn -0.7280 0.2691 0.6306
vn -0.7277 -0.4520 0.5159
vn -0.3133 -0.9440 0.1031
vn 0.3135 -0.8656 -0.3906
vn 0.7280 -0.2691 -0.6306
vn 0.4353 0.4794 -0.7620
vn 0.1924 0.9567 -0.2186
vn -0.1925 0.8418 0.5044
vn -0.4356 0.2185 0.8732
vn -0.4353 -0.4794 0.7620
vn -0.1924 -0.9567 0.2186
vn 0.1925 -0.8418 -0.5044
vn 0.4356 -0.2185 -0.8732
vn 0.0894 0.4897 -0.8673
vn 0.0401 0.9617 -0.2712
vn -0.0401 0.8302 0.5560
vn -0.0894 0.1956 0.9766
vn -0.0894 -0.4897 0.8673
vn -0.0401 -0.9617 0.2712
vn 0.0401 -0.8302 -0.5560
vn 0.0894 -0.1956 -0.9766
vn -0.2659 0.4864 -0.8323
vn -0.1187 0.9600 -0.2534
vn 0.1187 0.8342 0.5386
vn 0.2660 0.2033 0.9423
vn 0.2659 -0.4864 0.8323
vn 0.1187 -0.9600 0.2534
vn -0.1187 -0.8342 -0.5386
vn -0.2660 -0.2033 -0.9423
vn -0.5918 0.4682 -0.6562
vn -0.2583 0.9514 -0.1678
vn 0.2584 0.8525 0.4544
vn 0.5920 0.2408 0.7691
vn 0.5918 -0.4682 0.6562
vn 0.2583 -0.9514 0.1678
vn -0.2584 -0.8525 -0.4544
vn -0.5920 -0.2408 -0.7691
vn -0.8343 0.4303 -0.3446
vn -0.3548 0.9345 -0.0272
vn 0.3549 0.8801 0.3154
vn 0.8345 0.3018 0.4609
vn 0.8343 -0.4303 0.3446
vn 0.3548 -0.9345 0.0272
vn -0.3549 -0.8801 -0.3154
vn -0.8345 -0.3018 -0.4609
vn -0.9266 0.3713 0.0590
vn -0.3895 0.9096 0.1445
vn 0.3895 0.9096 0.1445
vn 0.9266 0.3713 0.0590
vn 0.9266 -0.3713 -0.0590
vn 0.3895 -0.9096 -0.1445
vn -0.3895 -0.9096 -0.1445
vn -0.9266 -0.3713 -0.0590
vn -0.8345 0.3018 0.4609
vn -0.3549 0.8801 0.3154
vn 0.3548 0.9345 -0.0272
vn 0.8343 0.4303 -0.3446
vn 0.8345 -0.3018 -0.4609
vn 0.3549 -0.8801 -0.3154
vn -0.3548 -0.9345 0.0272
vn -0.8343 -0.4303 0.3446
vn -0.5920 0.2408 0.7691
vn -0.2584 0.8525 0.4544
vn 0.2583 0.9514 -0.1678
vn 0.5918 0.4682 -0.6562
vn 0.5920 -0.2408 -0.7691
vn 0.2584 -0.8525 -0.4544
vn -0.2583 -0.9514 0.1678
vn -0.5918 -0.4682 0.6562
vn -0.2660 0.2033 0.9423
vn -0.1187 0.8342 0.5386
vn 0.1187 0.9600 -0.2534
vn 0.2659 0.4864 -0.8323
vn 0.2660 -0.2033 -0.9423
vn 0.1187 -0.8342 -0.5386
vn -0.1187 -0.9600 0.2534
vn -0.2659 -0.4864 0.8323
vn 0.0894 0.1956 0.9766
vn 0.0401 0.8302 0.5560
vn -0.0401 0.9617 -0.2712
vn -0.0894 0.4897 -0.8673
vn -0.0894 -0.1956 -0.9766
vn -0.0401 -0.8302 -0.5560
vn 0.0401 -0.9617 0.2712
vn 0.0894 -0.4897 0.8673
vn 0.4356 0.2185 0.8732
vn 0.1925 0.8418 0.5044
vn -0.1924 0.9567 -0.2186
vn -0.4353 0.4794 -0.7620
vn -0.4356 -0.2185 -0.8732
vn -0.1925 -0.8418 -0.5044
vn 0.1924 -0.9567 0.2186
vn 0.4353 -0.4794 0.7620
vn 0.7280 0.2691 0.6306
vn 0.3135 0.8656 0.3906
vn -0.3133 0.9440 -0.1031
vn -0.7277 0.4520 -0.5159
vn -0.7280 -0.2691 -0.6306
vn -0.3134 -0.8656 -0.3906
vn 0.3133 -0.9440 0.1031
vn 0.7277 -0.4520 0.5159
vn 0.9030 0.3367 0.2668
vn 0.3807 0.8951 0.2321
vn -0.3807 0.9230 0.0566
vn -0.9029 0.4031 -0.1493
vn -0.9030 -0.3367 -0.2668
vn -0.3807 -0.8951 -0.2321
vn 0.3807 -0.9230 -0.0566
vn 0.9029 -0.4031 0.1493
usemtl black_metal02
s off
f 1/1/1 9/2/1 10/3/1 2/4/1
f 2/4/2 10/3/2 11/5/2 3/6/2
f 3/6/3 11/5/3 12/7/3 4/8/3
f 4/8/4 12/7/4 13/9/4 5/10/4
f 5/11/5 13/12/5 14/13/5 6/14/5
f 6/14/6 14/13/6 15/15/6 7/16/6
f 7/16/7 15/15/7 16/17/7 8/18/7
f 8/18/8 16/17/8 9/2/8 1/1/8
f 9/2/9 17/19/9 18/20/9 10/3/9
f 10/3/10 18/20/10 19/21/10 11/5/10
f 11/5/11 19/21/11 20/22/11 12/7/11
f 12/7/12 20/22/12 21/23/12 13/9/12
f 13/12/13 21/24/13 22/25/13 14/13/13
f 14/13/14 22/25/14 23/26/14 15/15/14
f 15/15/15 23/26/15 24/27/15 16/17/15
f 16/17/16 24/27/16 17/19/16 9/2/16
f 17/19/17 25/28/17 26/29/17 18/20/17
f 18/20/18 26/29/18 27/30/18 19/21/18
f 19/21/19 27/30/19 28/31/19 20/22/19
f 20/22/20 28/31/20 29/32/20 21/23/20
f 21/24/21 29/33/21 30/34/21 22/25/21
f 22/25/22 30/34/22 31/35/22 23/26/22
f 23/26/23 31/35/23 32/36/23 24/27/23
f 24/27/24 32/36/24 25/28/24 17/19/24
f 25/28/25 33/37/25 34/38/25 26/29/25
f 26/29/26 34/38/26 35/39/26 27/30/26
f 27/30/27 35/39/27 36/40/27 28/31/27
f 28/31/28 36/40/28 37/41/28 29/32/28
f 29/33/29 37/42/29 38/43/29 30/34/29
f 30/34/30 38/43/30 39/44/30 31/35/30
f 31/35/31 39/44/31 40/45/31 32/36/31
f 32/36/32 40/45/32 33/37/32 25/28/32
f 33/37/33 41/46/33 42/47/33 34/38/33
f 34/38/34 42/47/34 43/48/34 35/39/34
f 35/39/35 43/48/35 44/49/35 36/40/35
f 36/40/36 44/49/36 45/50/36 37/41/36
f 37/42/37 45/51/37 46/52/37 38/43/37
f 38/43/38 46/52/38 47/53/38 39/44/38
f 39/44/39 47/53/39 48/54/39 40/45/39
f 40/45/40 48/54/40 41/46/40 33/37/40
f 41/46/41 49/55/41 50/56/41 42/47/41
f 42/47/42 50/56/42 51/57/42 43/48/42
f 43/48/43 51/57/43 52/58/43 44/49/43
f 44/49/44 52/58/44 53/59/44 45/50/44
f 45/51/45 53/60/45 54/61/45 46/52/45
f 46/52/46 54/61/46 55/62/46 47/53/46
f 47/53/47 55/62/47 56/63/47 48/54/47
f 48/54/48 56/63/48 49/55/48 41/46/48
f 49/55/49 57/64/49 58/65/49 50/56/49
f 50/56/50 58/65/50 59/66/50 51/57/50
f 51/57/51 59/66/51 60/67/51 52/58/51
f 52/58/52 60/67/52 61/68/52 53/59/52
f 53/60/53 61/69/53 62/70/53 54/61/53
f 54/61/54 62/70/54 63/71/54 55/62/54
f 55/62/55 63/71/55 64/72/55 56/63/55
f 56/63/56 64/72/56 57/64/56 49/55/56
f 57/73/57 65/74/57 66/75/57 58/76/57
f 58/76/58 66/75/58 67/77/58 59/78/58
f 59/78/59 67/77/59 68/79/59 60/80/59
f 60/80/60 68/79/60 69/81/60 61/82/60
f 61/83/61 69/84/61 70/85/61 62/86/61
f 62/86/62 70/85/62 71/87/62 63/88/62
f 63/88/63 71/87/63 72/89/63 64/90/63
f 64/90/64 72/89/64 65/74/64 57/73/64
f 65/74/65 73/91/65 74/92/65 66/75/65
f 66/75/66 74/92/66 75/93/66 67/77/66
f 67/77/67 75/93/67 76/94/67 68/79/67
f 68/79/68 76/94/68 77/95/68 69/81/68
f 69/84/69 77/96/69 78/97/69 70/85/69
f 70/85/70 78/97/70 79/98/70 71/87/70
f 71/87/71 79/98/71 80/99/71 72/89/71
f 72/89/72 80/99/72 73/91/72 65/74/72
f 73/91/73 81/100/73 82/101/73 74/92/73
f 74/92/74 82/101/74 83/102/74 75/93/74
f 75/93/75 83/102/75 84/103/75 76/94/75
f 76/94/76 84/103/76 85/104/76 77/95/76
f 77/96/77 85/105/77 86/106/77 78/97/77
f 78/97/78 86/106/78 87/107/78 79/98/78
f 79/98/79 87/107/79 88/108/79 80/99/79
f 80/99/80 88/108/80 81/100/80 73/91/80
f 81/100/81 89/109/81 90/110/81 82/101/81
f 82/101/82 90/110/82 91/111/82 83/102/82
f 83/102/83 91/111/83 92/112/83 84/103/83
f 84/103/84 92/112/84 93/113/84 85/104/84
f 85/105/85 93/114/85 94/115/85 86/106/85
f 86/106/86 94/115/86 95/116/86 87/107/86
f 87/107/87 95/116/87 96/117/87 88/108/87
f 88/108/88 96/117/88 89/109/88 81/100/88
f 89/109/89 97/118/89 98/119/89 90/110/89
f 90/110/90 98/119/90 99/120/90 91/111/90
f 91/111/91 99/120/91 100/121/91 92/112/91
f 92/112/92 100/121/92 101/122/92 93/113/92
f 93/114/93 101/123/93 102/124/93 94/115/93
f 94/115/94 102/124/94 103/125/94 95/116/94
f 95/116/95 103/125/95 104/126/95 96/117/95
f 96/117/96 104/126/96 97/118/96 89/109/96
f 97/118/97 105/127/97 106/128/97 98/119/97
f 98/119/98 106/128/98 107/129/98 99/120/98
f 99/120/99 107/129/99 108/130/99 100/121/99
f 100/121/100 108/130/100 109/131/100 101/122/100
f 101/123/101 109/132/101 110/133/101 102/124/101
f 102/124/102 110/133/102 111/134/102 103/125/102
f 103/125/103 111/134/103 112/135/103 104/126/103
f 104/126/104 112/135/104 105/127/104 97/118/104
f 105/127/105 113/136/105 114/137/105 106/128/105
f 106/128/106 114/137/106 115/138/106 107/129/106
f 107/129/107 115/138/107 116/139/107 108/130/107
f 108/130/108 116/139/108 117/140/108 109/131/108
f 109/132/109 117/141/109 118/142/109 110/133/109
f 110/133/110 118/142/110 119/143/110 111/134/110
f 111/134/111 119/143/111 120/144/111 112/135/111
f 112/135/112 120/144/112 113/136/112 105/127/112
f 113/136/113 1/1/113 2/4/113 114/137/113
f 114/137/114 2/4/114 3/6/114 115/138/114
f 115/138/115 3/6/115 4/8/115 116/139/115
f 116/139/116 4/8/116 5/10/116 117/140/116
f 117/141/117 5/11/117 6/14/117 118/142/117
f 118/142/118 6/14/118 7/16/118 119/143/118
f 119/143/119 7/16/119 8/18/119 120/144/119
f 120/144/120 8/18/120 1/1/120 113/136/120
